<svg width="100" height="100" viewBox="0 0 100 100" fill="none" xmlns="http://www.w3.org/2000/svg">
<path d="M39.34 0H60.67C87.92 0 100 12.09 100 39.33V60.67C100 87.91 87.92 100 60.67 100H39.34C12.09 100 0 87.91 0 60.67V39.33C0.04 12.09 12.13 0 39.34 0Z" fill="#FF6521"/>
<path d="M48.5858 67.0722L50 68.4864L51.4142 67.0722L75.9475 42.5389L83.4085 50L50 83.4085L16.5915 50L24.0525 42.5389L48.5858 67.0722Z" stroke="white" stroke-width="4"/>
<path d="M48.5858 32.9278L50 31.5136L51.4142 32.9278L61.6316 43.1452L69.0927 35.6842L50 16.5914L30.9073 35.6842L38.3684 43.1452L48.5858 32.9278Z" stroke="white" stroke-width="4"/>
</svg>
