<svg width="134" height="134" viewBox="0 0 134 134" fill="none" xmlns="http://www.w3.org/2000/svg">
<path d="M67.092 91.5C53.5304 91.5 42.546 80.5363 42.546 67C42.546 53.4638 53.5304 42.5 67.092 42.5C79.2423 42.5 89.3267 51.3404 91.2699 62.9167H116C113.914 37.7633 92.8245 18 67.092 18C39.9891 18 18 39.9479 18 67C18 94.0521 39.9891 116 67.092 116C92.8245 116 113.914 96.2367 116 71.0833H91.2699C89.3267 82.6596 79.2423 91.5 67.092 91.5Z" fill="white"/>
<path fill-rule="evenodd" clip-rule="evenodd" d="M52.448 0H80.8907C117.219 0 133.333 16.1147 133.333 52.4427V80.8907C133.333 117.219 117.219 133.333 80.8907 133.333H52.448C16.12 133.333 0 117.219 0 80.8907V52.4427C0 16.1147 16.12 0 52.448 0Z" fill="#0052FF"/>
<path d="M67.092 91.5C53.5304 91.5 42.546 80.5363 42.546 67C42.546 53.4638 53.5304 42.5 67.092 42.5C79.2423 42.5 89.3267 51.3404 91.2699 62.9167H116C113.914 37.7633 92.8245 18 67.092 18C39.9891 18 18 39.9479 18 67C18 94.0521 39.9891 116 67.092 116C92.8245 116 113.914 96.2367 116 71.0833H91.2699C89.3267 82.6596 79.2423 91.5 67.092 91.5Z" fill="white"/>
</svg>
